<?xml version="1.0" standalone="no"?>
<!DOCTYPE svg PUBLIC "-//W3C//DTD SVG 20010904//EN"
 "http://www.w3.org/TR/2001/REC-SVG-20010904/DTD/svg10.dtd">
<svg version="1.0" xmlns="http://www.w3.org/2000/svg"
 width="256.000000pt" height="256.000000pt" viewBox="0 0 256.000000 256.000000"
 preserveAspectRatio="xMidYMid meet">

<g transform="translate(0.000000,256.000000) scale(0.100000,-0.100000)"
fill="#000000" stroke="none">
<path d="M1059 2534 c-530 -95 -942 -510 -1034 -1041 -19 -110 -19 -316 0
-427 33 -187 112 -375 222 -528 71 -98 225 -249 319 -311 506 -334 1158 -280
1588 133 258 248 396 568 396 919 0 273 -81 526 -236 742 -67 92 -213 237
-305 302 -144 102 -336 181 -515 212 -107 19 -331 18 -435 -1z m361 -99 c188
-17 400 -104 568 -232 198 -151 353 -383 420 -630 24 -90 26 -113 26 -293 0
-181 -2 -202 -27 -295 -109 -402 -430 -723 -834 -833 -90 -24 -113 -26 -293
-26 -180 0 -203 2 -293 26 -331 90 -606 317 -753 623 -288 598 -25 1307 585
1574 97 43 243 80 353 90 91 8 117 8 248 -4z"/>
<path d="M1152 2029 c-64 -25 -139 -97 -172 -164 -22 -43 -25 -67 -28 -176
l-4 -126 -54 -6 c-68 -7 -113 -34 -142 -86 -23 -40 -23 -44 -20 -370 3 -317 4
-331 24 -358 12 -15 36 -37 55 -48 33 -19 52 -20 469 -20 417 0 436 1 469 20
19 11 43 33 55 48 20 28 21 38 21 370 l0 342 -23 33 c-30 42 -71 62 -137 69
l-53 6 -4 121 c-3 105 -7 128 -30 177 -32 69 -88 127 -154 160 -69 34 -197 38
-272 8z m214 -100 c39 -12 98 -73 119 -121 10 -26 15 -70 15 -143 l0 -105
-221 0 -221 0 3 123 c4 107 7 127 28 160 54 88 162 122 277 86z m332 -495 c22
-15 22 -16 22 -319 0 -303 0 -304 -22 -319 -19 -14 -77 -16 -425 -16 -352 0
-404 2 -417 16 -14 13 -16 56 -16 319 0 303 0 304 22 319 19 14 76 16 418 16
342 0 399 -2 418 -16z"/>
<path d="M1219 1257 c-20 -13 -39 -37 -45 -57 -12 -36 -10 -43 43 -134 7 -11
13 -37 13 -56 0 -43 15 -60 50 -60 36 0 50 17 50 65 0 28 9 53 30 84 17 24 30
55 30 68 0 57 -56 113 -113 113 -13 0 -39 -10 -58 -23z"/>
</g>
</svg>
