<?xml version="1.0" standalone="no"?>
<!DOCTYPE svg PUBLIC "-//W3C//DTD SVG 20010904//EN"
 "http://www.w3.org/TR/2001/REC-SVG-20010904/DTD/svg10.dtd">
<svg version="1.0" xmlns="http://www.w3.org/2000/svg"
 width="71.000000pt" height="72.000000pt" viewBox="0 0 71.000000 72.000000"
 preserveAspectRatio="xMidYMid meet">

<g transform="translate(0.000000,72.000000) scale(0.100000,-0.100000)"
fill="#000000" stroke="none">
<path d="M233 692 c-67 -27 -129 -76 -167 -134 -97 -146 -79 -327 43 -449 172
-172 454 -122 563 99 30 60 33 75 33 153 -1 77 -5 94 -33 152 -40 80 -112 148
-188 176 -69 26 -190 28 -251 3z m263 -45 c217 -110 238 -411 39 -553 -57 -40
-129 -58 -209 -52 -216 18 -351 255 -258 453 39 82 115 148 202 176 14 5 59 7
100 5 57 -2 87 -9 126 -29z"/>
<path d="M213 494 c-32 -32 -27 -69 23 -141 83 -121 211 -186 264 -133 26 26
25 42 -2 67 -36 33 -64 43 -97 37 -25 -5 -36 -1 -61 25 -27 26 -30 36 -25 62
5 23 1 39 -19 70 -31 46 -47 48 -83 13z"/>
</g>
</svg>
