<?xml version="1.0" standalone="no"?>
<!DOCTYPE svg PUBLIC "-//W3C//DTD SVG 20010904//EN"
 "http://www.w3.org/TR/2001/REC-SVG-20010904/DTD/svg10.dtd">
<svg version="1.0" xmlns="http://www.w3.org/2000/svg"
 width="71.000000pt" height="71.000000pt" viewBox="0 0 71.000000 71.000000"
 preserveAspectRatio="xMidYMid meet">

<g transform="translate(0.000000,71.000000) scale(0.100000,-0.100000)"
fill="#000000" stroke="none">
<path d="M251 696 c-67 -22 -145 -81 -185 -139 -102 -151 -80 -337 56 -462
174 -162 449 -105 555 115 23 47 27 68 28 145 0 77 -4 98 -27 147 -34 73 -104
143 -176 176 -69 31 -183 40 -251 18z m246 -57 c195 -94 238 -354 83 -509 -23
-23 -67 -53 -97 -67 -49 -22 -65 -25 -141 -21 -100 5 -150 26 -211 87 -65 65
-86 121 -86 231 0 73 4 103 19 130 67 127 189 196 321 184 28 -3 78 -18 112
-35z"/>
<path d="M130 501 c-13 -26 -13 -266 0 -292 10 -18 23 -19 230 -19 207 0 220
1 230 19 15 28 13 284 -2 299 -9 9 -74 12 -230 12 -205 0 -218 -1 -228 -19z
m340 -78 c-40 -38 -82 -74 -92 -82 -22 -15 -19 -17 -135 91 l-61 58 180 0 180
0 -72 -67z m-228 -40 l28 -29 -55 -54 -55 -54 0 103 0 102 28 -19 c15 -11 39
-33 54 -49z m318 -35 l0 -102 -56 54 -55 55 52 48 c29 26 54 47 56 47 2 0 3
-46 3 -102z m-194 -48 c17 0 37 7 44 15 10 12 20 8 66 -33 30 -26 54 -50 54
-54 0 -5 -76 -8 -170 -8 -93 0 -170 2 -170 4 0 3 23 27 52 54 48 46 54 49 72
36 11 -8 35 -14 52 -14z"/>
</g>
</svg>
