<?xml version="1.0" standalone="no"?>
<!DOCTYPE svg PUBLIC "-//W3C//DTD SVG 20010904//EN"
 "http://www.w3.org/TR/2001/REC-SVG-20010904/DTD/svg10.dtd">
<svg version="1.0" xmlns="http://www.w3.org/2000/svg"
 width="71.000000pt" height="71.000000pt" viewBox="0 0 71.000000 71.000000"
 preserveAspectRatio="xMidYMid meet">

<g transform="translate(0.000000,71.000000) scale(0.100000,-0.100000)"
fill="#000000" stroke="none">
<path d="M265 696 c-107 -34 -186 -103 -233 -204 -34 -73 -36 -179 -7 -262 27
-73 117 -170 187 -200 148 -64 331 -17 424 109 110 149 90 348 -48 476 -89 83
-216 115 -323 81z m232 -57 c192 -92 236 -344 88 -507 -112 -124 -313 -131
-446 -14 -19 17 -48 55 -65 84 -26 48 -29 62 -29 148 0 110 21 166 86 231 100
100 235 121 366 58z"/>
<path d="M291 552 c-47 -23 -72 -61 -79 -117 -4 -43 0 -58 47 -149 67 -131 85
-154 107 -141 9 6 43 60 75 120 47 88 59 119 59 156 0 80 -67 149 -145 149
-16 0 -45 -8 -64 -18z m106 -84 c13 -12 23 -30 23 -40 0 -23 -43 -68 -65 -68
-20 0 -65 44 -65 63 0 24 40 67 63 67 11 0 31 -10 44 -22z"/>
</g>
</svg>
