<?xml version="1.0" standalone="no"?>
<!DOCTYPE svg PUBLIC "-//W3C//DTD SVG 20010904//EN"
 "http://www.w3.org/TR/2001/REC-SVG-20010904/DTD/svg10.dtd">
<svg version="1.0" xmlns="http://www.w3.org/2000/svg"
 width="71.000000pt" height="72.000000pt" viewBox="0 0 71.000000 72.000000"
 preserveAspectRatio="xMidYMid meet">

<g transform="translate(0.000000,72.000000) scale(0.100000,-0.100000)"
fill="#000000" stroke="none">
<path d="M229 687 c-114 -48 -186 -132 -215 -250 -15 -59 -15 -78 -5 -135 23
-124 96 -218 209 -270 83 -38 194 -37 277 1 153 71 238 234 205 393 -23 112
-82 191 -182 244 -55 30 -74 34 -148 37 -72 3 -94 0 -141 -20z m265 -41 c128
-63 200 -205 174 -346 -13 -70 -39 -121 -88 -170 -68 -68 -111 -85 -220 -85
-111 0 -162 19 -229 86 -57 58 -85 120 -89 204 -5 87 8 139 51 201 91 135 257
180 401 110z"/>
<path d="M207 574 c-4 -4 -7 -27 -7 -51 0 -40 -2 -43 -28 -43 -46 0 -52 -15
-52 -130 0 -115 6 -130 51 -130 25 0 28 -4 31 -38 l3 -37 150 0 150 0 3 38 c3
31 7 37 27 37 54 0 55 3 55 130 0 127 -1 130 -55 130 -21 0 -24 5 -27 48 l-3
47 -146 3 c-80 1 -148 -1 -152 -4z m273 -59 l0 -35 -125 0 -125 0 0 35 0 35
125 0 125 0 0 -35z m85 -165 l0 -95 -27 -3 c-26 -3 -28 0 -28 30 0 54 -10 58
-155 58 -145 0 -155 -4 -155 -58 0 -30 -2 -33 -27 -30 -28 3 -28 4 -31 87 -2
46 -1 90 2 98 5 11 46 13 213 11 l208 -3 0 -95z m-85 -110 l0 -70 -125 0 -125
0 0 70 0 70 125 0 125 0 0 -70z"/>
<path d="M206 411 c-4 -6 -5 -15 -2 -20 8 -12 69 -8 73 6 6 16 -16 26 -31 14
-9 -7 -16 -7 -23 0 -8 8 -13 8 -17 0z"/>
<path d="M283 268 c2 -9 26 -13 72 -13 46 0 70 4 73 13 3 9 -16 12 -73 12 -57
0 -76 -3 -72 -12z"/>
<path d="M283 208 c2 -9 26 -13 72 -13 46 0 70 4 73 13 3 9 -16 12 -73 12 -57
0 -76 -3 -72 -12z"/>
</g>
</svg>
