<?xml version="1.0" standalone="no"?>
<!DOCTYPE svg PUBLIC "-//W3C//DTD SVG 20010904//EN"
 "http://www.w3.org/TR/2001/REC-SVG-20010904/DTD/svg10.dtd">
<svg version="1.0" xmlns="http://www.w3.org/2000/svg"
 width="2084.000000pt" height="2084.000000pt" viewBox="0 0 2084.000000 2084.000000"
 preserveAspectRatio="xMidYMid meet">

<g transform="translate(0.000000,2084.000000) scale(0.100000,-0.100000)"
fill="#000000" stroke="none">
<path d="M16090 20826 c-67 -19 -147 -63 -215 -117 -33 -26 -790 -778 -1681
-1671 l-1622 -1623 -41 -85 c-52 -107 -75 -210 -68 -310 3 -41 39 -244 81
-450 42 -206 134 -679 206 -1050 72 -371 137 -700 146 -730 26 -91 83 -195
141 -259 99 -110 253 -163 408 -142 223 31 361 155 411 368 27 116 15 242 -60
633 -103 534 -160 823 -215 1089 -70 337 -68 417 17 536 19 27 300 312 625
635 731 725 1052 1056 1370 1413 l247 278 36 -74 c31 -66 48 -141 154 -678 65
-332 146 -750 180 -929 74 -391 99 -492 144 -586 44 -94 91 -144 174 -187 123
-63 165 -74 682 -172 614 -117 1575 -306 1580 -312 9 -10 -2292 -2293 -2339
-2321 -38 -22 -60 -27 -136 -30 -77 -3 -146 6 -475 63 -475 82 -772 141 -1045
207 -195 48 -219 52 -335 52 -145 0 -213 -15 -335 -74 -44 -21 -109 -61 -145
-88 -82 -62 -6347 -6330 -6406 -6409 -195 -260 -114 -624 168 -758 161 -77
313 -68 484 29 34 19 971 950 3109 3088 1801 1802 3080 3074 3110 3093 135 87
180 86 688 -15 1259 -249 1321 -260 1402 -260 105 0 190 21 289 72 80 40 104
64 1727 1687 1126 1126 1658 1665 1684 1706 61 94 85 171 85 273 -1 178 -91
337 -242 426 -78 45 -183 74 -457 127 -146 27 -462 88 -701 135 -514 100
-1155 222 -1364 259 -170 30 -235 52 -288 95 -66 54 -81 104 -158 516 -149
799 -391 2053 -410 2129 -29 114 -80 216 -140 279 -115 121 -321 183 -470 142z"/>
<path d="M7790 15340 c-1565 -88 -2998 -608 -4233 -1537 -488 -368 -975 -843
-1365 -1331 -1119 -1402 -1712 -3156 -1679 -4967 8 -440 39 -764 112 -1180
182 -1031 584 -2015 1182 -2895 385 -566 897 -1127 1453 -1590 471 -392 1076
-776 1645 -1043 933 -437 1871 -681 2960 -769 244 -20 847 -17 1070 5 1048
104 1906 349 2770 791 1318 675 2410 1770 3198 3208 981 1790 1219 3605 718
5478 -176 658 -471 1373 -837 2028 -109 195 -220 313 -354 376 -55 26 -77 30
-140 30 -131 -1 -294 -64 -408 -158 -193 -157 -198 -366 -19 -665 494 -820
789 -1640 912 -2536 37 -274 47 -420 52 -791 6 -402 -2 -580 -38 -894 -167
-1452 -815 -2809 -1839 -3854 -551 -562 -1131 -985 -1822 -1326 -748 -370
-1519 -585 -2388 -667 -231 -21 -880 -24 -1100 -5 -923 81 -1691 295 -2470
688 -1934 974 -3285 2855 -3594 5004 -227 1576 149 3237 1040 4598 448 684
1021 1280 1689 1757 1007 719 2165 1134 3415 1225 200 15 691 15 890 0 534
-39 1012 -128 1522 -285 426 -131 818 -299 1283 -548 212 -113 304 -150 423
-167 192 -28 354 46 463 213 129 199 104 425 -67 607 -106 112 -265 211 -659
407 -906 454 -1813 704 -2840 783 -182 14 -759 20 -945 10z"/>
<path d="M7955 12064 c-16 -2 -86 -9 -155 -15 -298 -26 -636 -98 -955 -203
-940 -311 -1742 -920 -2290 -1741 -236 -354 -401 -694 -529 -1093 -240 -748
-266 -1516 -80 -2351 147 -663 416 -1237 808 -1731 131 -164 436 -469 606
-604 628 -501 1483 -864 2326 -985 413 -60 875 -53 1274 19 626 113 1250 398
1789 818 340 265 711 640 959 968 74 98 231 339 294 449 263 462 428 975 495
1530 27 227 24 735 -5 980 -55 451 -149 859 -243 1053 -40 84 -64 117 -122
176 -99 100 -178 138 -301 144 -267 13 -470 -137 -517 -382 -22 -118 -6 -245
60 -476 96 -331 134 -599 134 -935 0 -325 -29 -545 -113 -872 -253 -978 -966
-1804 -1907 -2207 -635 -272 -1307 -342 -1983 -206 -1306 263 -2339 1302
-2604 2620 -47 231 -59 367 -60 635 0 260 13 412 55 635 255 1344 1276 2384
2606 2654 241 49 369 61 668 61 357 0 531 -21 870 -104 261 -64 360 -73 486
-47 37 8 89 26 117 40 151 77 250 276 240 485 -4 78 -9 99 -41 164 -64 130
-188 222 -375 281 -109 34 -491 111 -928 186 -346 59 -448 68 -579 54z"/>
</g>
</svg>
