<?xml version="1.0" standalone="no"?>
<!DOCTYPE svg PUBLIC "-//W3C//DTD SVG 20010904//EN"
 "http://www.w3.org/TR/2001/REC-SVG-20010904/DTD/svg10.dtd">
<svg version="1.0" xmlns="http://www.w3.org/2000/svg"
 width="73.000000pt" height="73.000000pt" viewBox="0 0 73.000000 73.000000"
 preserveAspectRatio="xMidYMid meet">

<g transform="translate(0.000000,73.000000) scale(0.100000,-0.100000)"
fill="#000000" stroke="none">
<path d="M149 716 c-56 -20 -97 -54 -122 -99 -20 -38 -22 -58 -25 -228 -4
-226 2 -256 67 -320 62 -63 111 -73 330 -67 179 4 217 15 267 70 55 60 59 79
59 288 0 135 -4 206 -13 232 -17 47 -89 113 -138 127 -56 16 -380 13 -425 -3z
m453 -71 c15 -11 37 -39 48 -62 20 -39 21 -56 18 -232 -3 -207 -6 -216 -72
-265 -25 -19 -44 -21 -222 -24 -183 -3 -196 -2 -232 18 -74 43 -77 50 -80 278
-3 191 -2 205 18 237 11 18 35 43 53 54 30 20 44 21 237 19 187 -3 207 -5 232
-23z"/>
<path d="M512 608 c-35 -35 14 -102 57 -79 45 25 33 91 -17 91 -16 0 -33 -5
-40 -12z"/>
<path d="M285 536 c-151 -67 -136 -294 22 -347 148 -48 288 104 228 248 -20
48 -41 71 -87 94 -43 22 -119 24 -163 5z m129 -50 c68 -28 97 -117 61 -186
-32 -62 -131 -80 -191 -35 -78 60 -62 181 30 221 40 17 59 17 100 0z"/>
</g>
</svg>
