<?xml version="1.0" standalone="no"?>
<!DOCTYPE svg PUBLIC "-//W3C//DTD SVG 20010904//EN"
 "http://www.w3.org/TR/2001/REC-SVG-20010904/DTD/svg10.dtd">
<svg version="1.0" xmlns="http://www.w3.org/2000/svg"
 width="74.000000pt" height="73.000000pt" viewBox="0 0 74.000000 73.000000"
 preserveAspectRatio="xMidYMid meet">

<g transform="translate(0.000000,73.000000) scale(0.100000,-0.100000)"
fill="#000000" stroke="none">
<path d="M22 718 c-17 -17 -17 -689 0 -706 8 -8 65 -12 190 -12 l178 0 0 140
0 140 -45 0 -45 0 0 55 0 55 44 0 43 0 6 72 c10 113 61 161 167 156 l55 -3 3
-47 3 -48 -36 0 c-62 0 -75 -13 -75 -75 l0 -55 50 0 c49 0 50 -1 50 -29 0 -16
-4 -41 -10 -55 -8 -22 -16 -26 -50 -26 l-40 0 0 -140 0 -140 91 0 c142 0 129
-36 129 363 0 254 -3 346 -12 355 -17 17 -679 17 -696 0z"/>
</g>
</svg>
