<?xml version="1.0" standalone="no"?>
<!DOCTYPE svg PUBLIC "-//W3C//DTD SVG 20010904//EN"
 "http://www.w3.org/TR/2001/REC-SVG-20010904/DTD/svg10.dtd">
<svg version="1.0" xmlns="http://www.w3.org/2000/svg"
 width="73.000000pt" height="73.000000pt" viewBox="0 0 73.000000 73.000000"
 preserveAspectRatio="xMidYMid meet">

<g transform="translate(0.000000,73.000000) scale(0.100000,-0.100000)"
fill="#000000" stroke="none">
<path d="M279 717 c-100 -29 -174 -90 -227 -190 -24 -47 -27 -62 -27 -152 0
-83 4 -107 21 -139 l21 -40 -29 -88 c-17 -49 -28 -92 -25 -95 3 -3 45 8 94 24
87 29 88 29 133 12 110 -43 228 -30 328 36 176 117 203 372 57 534 -78 86
-233 130 -346 98z m178 -62 c60 -18 132 -79 171 -143 24 -42 27 -57 27 -137 0
-80 -3 -95 -27 -135 -61 -103 -149 -155 -263 -154 -52 0 -81 6 -113 23 -42 22
-45 22 -93 6 -28 -10 -52 -15 -55 -13 -2 3 3 26 12 51 15 46 15 48 -10 99 -61
122 -17 289 97 364 81 53 163 66 254 39z"/>
<path d="M221 531 c-34 -34 -36 -76 -6 -136 50 -103 169 -195 251 -195 40 0
84 34 84 66 0 18 -10 29 -41 45 l-41 20 -22 -20 c-29 -27 -42 -26 -87 4 -46
33 -79 89 -61 107 16 16 15 51 -2 93 -17 40 -45 46 -75 16z"/>
</g>
</svg>
