<?xml version="1.0" standalone="no"?>
<!DOCTYPE svg PUBLIC "-//W3C//DTD SVG 20010904//EN"
 "http://www.w3.org/TR/2001/REC-SVG-20010904/DTD/svg10.dtd">
<svg version="1.0" xmlns="http://www.w3.org/2000/svg"
 width="239.000000pt" height="158.000000pt" viewBox="0 0 239.000000 158.000000"
 preserveAspectRatio="xMidYMid meet">

<g transform="translate(0.000000,158.000000) scale(0.100000,-0.100000)"
fill="#000000" stroke="none">
<path d="M1920 1527 c-41 -24 -99 -59 -129 -77 -80 -51 -124 -47 -276 24 -132
62 -183 69 -260 40 -70 -27 -74 -27 -122 -3 -37 17 -65 23 -123 23 -65 0 -88
-5 -170 -39 -125 -52 -183 -53 -290 -5 -41 18 -98 35 -127 38 -85 7 -122 -18
-264 -179 -68 -77 -129 -150 -136 -162 -7 -12 -12 -44 -13 -71 0 -47 2 -52 62
-110 35 -34 91 -86 126 -116 l64 -55 -48 -60 c-53 -68 -83 -128 -84 -165 0
-36 33 -85 78 -117 36 -26 39 -31 34 -64 -13 -104 74 -198 184 -199 36 0 44
-5 67 -38 40 -57 76 -74 151 -71 l63 2 50 -51 c75 -79 132 -73 269 29 l52 38
68 -59 c113 -101 185 -104 265 -11 l41 48 56 -33 c93 -57 152 -43 223 51 27
36 49 55 63 55 35 1 100 35 129 69 14 18 31 50 37 73 6 22 23 51 38 65 77 70
93 89 103 125 13 48 0 91 -42 144 -29 37 -29 38 -11 58 10 12 84 94 164 183
166 184 189 225 169 296 -13 44 -46 91 -168 243 -112 140 -165 155 -293 81z
m158 -53 c29 -20 217 -263 226 -291 4 -12 1 -33 -6 -47 -19 -36 -318 -368
-328 -364 -5 2 -104 77 -220 168 -116 91 -238 184 -271 207 -106 75 -184 80
-295 18 -80 -45 -103 -45 -143 0 -56 64 -42 85 131 202 l100 68 72 0 c66 0 82
-4 174 -48 165 -79 203 -76 384 34 62 38 122 69 133 69 11 0 31 -7 43 -16z
m-1005 -32 l38 -17 -68 -50 c-111 -82 -136 -141 -93 -224 24 -49 70 -87 121
-102 43 -13 44 -13 149 47 38 22 55 25 106 22 51 -3 71 -10 115 -40 93 -63
564 -468 573 -493 21 -53 -35 -123 -87 -110 -14 4 -98 74 -186 156 -89 82
-165 149 -169 149 -4 0 -16 -14 -26 -32 l-19 -31 39 -35 c193 -173 314 -296
314 -318 0 -55 -57 -102 -102 -85 -13 5 -95 74 -183 155 -88 80 -162 146 -165
146 -4 0 -16 -13 -28 -29 l-21 -29 107 -98 c211 -194 220 -208 163 -265 -54
-53 -68 -45 -300 169 l-89 82 -21 -26 c-12 -15 -21 -30 -21 -33 0 -4 34 -40
75 -81 50 -50 75 -82 75 -98 0 -32 -26 -68 -60 -82 -34 -14 -42 -10 -125 63
-49 44 -49 44 -56 121 -5 70 -9 80 -40 112 -19 20 -53 45 -75 55 -59 28 -181
180 -190 236 -10 64 -38 101 -97 128 -28 14 -56 25 -62 25 -5 0 -23 25 -39 56
-59 113 -156 126 -274 36 -37 -28 -20 -37 -164 87 -82 69 -98 88 -98 112 0 22
25 56 111 154 61 69 121 132 133 141 13 8 46 17 74 21 41 4 60 1 107 -21 119
-57 228 -56 358 3 34 16 69 31 77 34 30 11 86 6 123 -11z m-534 -577 c17 -20
31 -38 31 -42 0 -29 -245 -283 -273 -283 -9 0 -32 14 -52 31 -60 53 -53 71 83
209 101 103 121 120 148 120 24 0 40 -9 63 -35z m181 -160 l34 -35 -17 -33
c-10 -17 -82 -98 -161 -179 -101 -104 -150 -148 -166 -148 -28 0 -90 61 -90
89 0 30 269 319 310 334 34 12 58 5 90 -28z m135 -210 c43 -42 34 -60 -93
-187 -65 -65 -125 -118 -134 -118 -29 0 -78 55 -78 87 0 33 63 113 153 195 63
58 111 65 152 23z m174 -170 c17 -20 31 -38 31 -41 0 -13 -47 -73 -99 -127
-65 -67 -101 -75 -145 -31 -46 46 -37 77 47 161 89 88 116 94 166 38z"/>
</g>
</svg>
